<?xml version="1.0" encoding="UTF-8" standalone="no"?>
<!DOCTYPE svg PUBLIC "-//W3C//DTD SVG 1.1//EN"
 "http://www.w3.org/Graphics/SVG/1.1/DTD/svg11.dtd">
<!-- Generated by graphviz version 2.40.1 (20161225.0304)
 -->
<!-- Title: G Pages: 1 -->
<svg width="289pt" height="103pt"
 viewBox="0.00 0.00 289.25 103.00" xmlns="http://www.w3.org/2000/svg" xmlns:xlink="http://www.w3.org/1999/xlink">
<g id="graph0" class="graph" transform="scale(1 1) rotate(0) translate(4 99)">
<title>G</title>
<polygon fill="#ffffff" stroke="transparent" points="-4,4 -4,-99 285.2468,-99 285.2468,4 -4,4"/>
<g id="clust1" class="cluster">
<title>cluster_partner</title>
<polygon fill="#aaffaa" stroke="#000000" points="5,-8 5,-87 82,-87 82,-8 5,-8"/>
<text text-anchor="start" x="12.8272" y="-69.6" font-family="Helvetica,sans-Serif" font-size="16.00" fill="#000000"> </text>
<text text-anchor="start" x="17.2736" y="-69.6" font-family="Helvetica,sans-Serif" font-weight="bold" font-size="16.00" fill="#000000">Partner</text>
<text text-anchor="start" x="69.7264" y="-69.6" font-family="Helvetica,sans-Serif" font-size="16.00" fill="#000000"> </text>
</g>
<g id="clust2" class="cluster">
<title>cluster_PSA</title>
<polygon fill="#ed7d31" stroke="#000000" points="168.1234,-8 168.1234,-87 273.2468,-87 273.2468,-8 168.1234,-8"/>
<text text-anchor="start" x="200.2331" y="-69.6" font-family="Helvetica,sans-Serif" font-size="16.00" fill="#000000"> </text>
<text text-anchor="start" x="204.6795" y="-69.6" font-family="Helvetica,sans-Serif" font-weight="bold" font-size="16.00" fill="#000000">PSA</text>
<text text-anchor="start" x="236.6907" y="-69.6" font-family="Helvetica,sans-Serif" font-size="16.00" fill="#000000"> </text>
</g>
<!-- app -->
<g id="node1" class="node">
<title>app</title>
<polygon fill="#ffaaaa" stroke="#000000" points="70,-52 16,-52 16,-16 70,-16 70,-52"/>
<text text-anchor="middle" x="43" y="-29.8" font-family="Helvetica,sans-Serif" font-size="14.00" fill="#000000">App</text>
</g>
<!-- PSAServer -->
<g id="node2" class="node">
<title>PSAServer</title>
<polygon fill="#5a9bd5" stroke="#000000" points="265.3086,-52 176.0616,-52 176.0616,-16 265.3086,-16 265.3086,-52"/>
<text text-anchor="middle" x="220.6851" y="-29.8" font-family="Helvetica,sans-Serif" font-size="14.00" fill="#000000">PSA Server</text>
</g>
<!-- app&#45;&gt;PSAServer -->
<g id="edge1" class="edge">
<title>app&#45;&gt;PSAServer</title>
<path fill="none" stroke="#000000" d="M80.3739,-34C80.3739,-34 165.9919,-34 165.9919,-34"/>
<polygon fill="#000000" stroke="#000000" points="165.9919,-37.5 175.9919,-34 165.9919,-30.5 165.9919,-37.5"/>
<polygon fill="#000000" stroke="#000000" points="80.3739,-30.5 70.3739,-34 80.3739,-37.5 80.3739,-30.5"/>
<text text-anchor="start" x="92" y="-39.2" font-family="Helvetica,sans-Serif" font-size="14.00" fill="#000000"> </text>
<text text-anchor="start" x="95.8906" y="-39.2" font-family="Helvetica,sans-Serif" font-weight="bold" font-size="14.00" fill="#000000">WEB API</text>
<text text-anchor="start" x="154.2328" y="-39.2" font-family="Helvetica,sans-Serif" font-size="14.00" fill="#000000"> </text>
</g>
</g>
</svg>