<?xml version="1.0" encoding="UTF-8" standalone="no"?>
<!DOCTYPE svg PUBLIC "-//W3C//DTD SVG 1.1//EN"
 "http://www.w3.org/Graphics/SVG/1.1/DTD/svg11.dtd">
<!-- Generated by graphviz version 2.40.1 (20161225.0304)
 -->
<!-- Title: G Pages: 1 -->
<svg width="867pt" height="211pt"
 viewBox="0.00 0.00 867.28 211.00" xmlns="http://www.w3.org/2000/svg" xmlns:xlink="http://www.w3.org/1999/xlink">
<g id="graph0" class="graph" transform="scale(1 1) rotate(0) translate(4 207)">
<title>G</title>
<polygon fill="#ffffff" stroke="transparent" points="-4,4 -4,-207 863.2832,-207 863.2832,4 -4,4"/>
<g id="clust1" class="cluster">
<title>cluster_partner</title>
<polygon fill="#aaffaa" stroke="#000000" points="0,-116 0,-195 147.0098,-195 147.0098,-116 0,-116"/>
<text text-anchor="start" x="7.7193" y="-177.6" font-family="Helvetica,sans-Serif" font-size="16.00" fill="#000000"> </text>
<text text-anchor="start" x="12.1657" y="-177.6" font-family="Helvetica,sans-Serif" font-weight="bold" font-size="16.00" fill="#000000">3rd&#45;Party Partner</text>
<text text-anchor="start" x="134.8441" y="-177.6" font-family="Helvetica,sans-Serif" font-size="16.00" fill="#000000"> </text>
</g>
<g id="clust2" class="cluster">
<title>cluster_PSA</title>
<polygon fill="#ed7d31" stroke="#000000" points="214.4474,-8 214.4474,-195 356.9004,-195 356.9004,-8 214.4474,-8"/>
<text text-anchor="start" x="235.4427" y="-177.6" font-family="Helvetica,sans-Serif" font-size="16.00" fill="#000000"> </text>
<text text-anchor="start" x="239.8891" y="-177.6" font-family="Helvetica,sans-Serif" font-weight="bold" font-size="16.00" fill="#000000">PSA Servers</text>
<text text-anchor="start" x="331.4587" y="-177.6" font-family="Helvetica,sans-Serif" font-size="16.00" fill="#000000"> </text>
</g>
<g id="clust3" class="cluster">
<title>cluster_NAC</title>
<polygon fill="#5a9bd5" stroke="#000000" points="424.338,-116 424.338,-195 851.2832,-195 851.2832,-116 424.338,-116"/>
<text text-anchor="start" x="551.5658" y="-177.6" font-family="Helvetica,sans-Serif" font-size="16.00" fill="#000000"> </text>
<text text-anchor="start" x="556.0122" y="-177.6" font-family="Helvetica,sans-Serif" font-weight="bold" font-size="16.00" fill="#000000">In&#45;Vehicle Infotainment</text>
<text text-anchor="start" x="719.609" y="-177.6" font-family="Helvetica,sans-Serif" font-size="16.00" fill="#000000"> </text>
</g>
<!-- appServer -->
<g id="node1" class="node">
<title>appServer</title>
<polygon fill="#ffaaaa" stroke="#000000" points="127.0147,-160 19.9951,-160 19.9951,-124 127.0147,-124 127.0147,-160"/>
<text text-anchor="middle" x="73.5049" y="-137.8" font-family="Helvetica,sans-Serif" font-size="14.00" fill="#000000">Partner Server</text>
</g>
<!-- MQTT -->
<g id="node2" class="node">
<title>MQTT</title>
<polygon fill="#5a9bd5" stroke="#000000" points="335.9442,-160 235.4036,-160 235.4036,-124 335.9442,-124 335.9442,-160"/>
<text text-anchor="middle" x="285.6739" y="-137.8" font-family="Helvetica,sans-Serif" font-size="14.00" fill="#000000">MQTT Broker</text>
</g>
<!-- appServer&#45;&gt;MQTT -->
<g id="edge3" class="edge">
<title>appServer&#45;&gt;MQTT</title>
<path fill="none" stroke="#000000" d="M137.0441,-142C137.0441,-142 225.0732,-142 225.0732,-142"/>
<polygon fill="#000000" stroke="#000000" points="225.0732,-145.5 235.0732,-142 225.0732,-138.5 225.0732,-145.5"/>
<polygon fill="#000000" stroke="#000000" points="137.0441,-138.5 127.0441,-142 137.0441,-145.5 137.0441,-138.5"/>
<text text-anchor="start" x="157.0098" y="-147.2" font-family="Helvetica,sans-Serif" font-size="14.00" fill="#000000"> </text>
<text text-anchor="start" x="160.9004" y="-147.2" font-family="Helvetica,sans-Serif" font-weight="bold" font-size="14.00" fill="#000000">MQTT</text>
<text text-anchor="start" x="200.5568" y="-147.2" font-family="Helvetica,sans-Serif" font-size="14.00" fill="#000000"> </text>
</g>
<!-- wpServer -->
<g id="node3" class="node">
<title>wpServer</title>
<polygon fill="#5a9bd5" stroke="#000000" points="349.1277,-52 222.2201,-52 222.2201,-16 349.1277,-16 349.1277,-52"/>
<text text-anchor="middle" x="285.6739" y="-29.8" font-family="Helvetica,sans-Serif" font-size="14.00" fill="#000000">WebPortal Server</text>
</g>
<!-- MQTT&#45;&gt;wpServer -->
<g id="edge1" class="edge">
<title>MQTT&#45;&gt;wpServer</title>
<path fill="none" stroke="#000000" d="M286.2832,-113.6793C286.2832,-113.6793 286.2832,-62.0502 286.2832,-62.0502"/>
<polygon fill="#000000" stroke="#000000" points="289.7832,-62.0502 286.2832,-52.0502 282.7832,-62.0502 289.7832,-62.0502"/>
<polygon fill="#000000" stroke="#000000" points="282.7832,-113.6793 286.2832,-123.6793 289.7832,-113.6793 282.7832,-113.6793"/>
</g>
<!-- wpEmbedded -->
<g id="node4" class="node">
<title>wpEmbedded</title>
<polygon fill="#000000" stroke="#000000" points="550.1865,-160 432.3885,-160 432.3885,-124 550.1865,-124 550.1865,-160"/>
<text text-anchor="middle" x="491.2875" y="-137.8" font-family="Helvetica,sans-Serif" font-size="14.00" fill="#ffffff">WebPortal Front</text>
</g>
<!-- MQTT&#45;&gt;wpEmbedded -->
<g id="edge4" class="edge">
<title>MQTT&#45;&gt;wpEmbedded</title>
<path fill="none" stroke="#000000" d="M345.9726,-142C345.9726,-142 422.0181,-142 422.0181,-142"/>
<polygon fill="#000000" stroke="#000000" points="422.0181,-145.5 432.0181,-142 422.0181,-138.5 422.0181,-145.5"/>
<polygon fill="#000000" stroke="#000000" points="345.9726,-138.5 335.9726,-142 345.9726,-145.5 345.9726,-138.5"/>
<text text-anchor="start" x="366.9004" y="-147.2" font-family="Helvetica,sans-Serif" font-size="14.00" fill="#000000"> </text>
<text text-anchor="start" x="370.791" y="-147.2" font-family="Helvetica,sans-Serif" font-weight="bold" font-size="14.00" fill="#000000">MQTT</text>
<text text-anchor="start" x="410.4474" y="-147.2" font-family="Helvetica,sans-Serif" font-size="14.00" fill="#000000"> </text>
</g>
<!-- wpApp -->
<g id="node5" class="node">
<title>wpApp</title>
<polygon fill="#000000" stroke="#000000" points="843.5145,-160 758.5919,-160 758.5919,-124 843.5145,-124 843.5145,-160"/>
<text text-anchor="middle" x="801.0532" y="-137.8" font-family="Helvetica,sans-Serif" font-size="14.00" fill="#ffffff">Application</text>
</g>
<!-- wpEmbedded&#45;&gt;wpApp -->
<g id="edge2" class="edge">
<title>wpEmbedded&#45;&gt;wpApp</title>
<path fill="none" stroke="#000000" d="M560.2812,-142C560.2812,-142 748.6855,-142 748.6855,-142"/>
<polygon fill="#000000" stroke="#000000" points="748.6855,-145.5 758.6855,-142 748.6855,-138.5 748.6855,-145.5"/>
<polygon fill="#000000" stroke="#000000" points="560.2812,-138.5 550.2812,-142 560.2812,-145.5 560.2812,-138.5"/>
<text text-anchor="start" x="587.237" y="-147.2" font-family="Helvetica,sans-Serif" font-size="14.00" fill="#000000"> </text>
<text text-anchor="start" x="591.1276" y="-147.2" font-family="Helvetica,sans-Serif" font-weight="bold" font-size="14.00" fill="#000000">window.postMessage</text>
<text text-anchor="start" x="717.9326" y="-147.2" font-family="Helvetica,sans-Serif" font-size="14.00" fill="#000000"> </text>
</g>
</g>
</svg>